<svg width="23" height="22" viewBox="0 0 23 22" fill="none" xmlns="http://www.w3.org/2000/svg">
<g clip-path="url(#clip0_29_572)">
<path d="M14.3305 5.87774C14.0147 5.47008 13.585 5.1654 13.0958 5.00232L11.8326 4.59165C11.7356 4.55713 11.6517 4.49344 11.5924 4.40933C11.533 4.32522 11.5012 4.2248 11.5012 4.12186C11.5012 4.01892 11.533 3.9185 11.5924 3.83439C11.6517 3.75028 11.7356 3.68659 11.8326 3.65207L13.0958 3.2414C13.4696 3.11232 13.809 2.89979 14.0884 2.61993C14.3678 2.34007 14.5798 2.00024 14.7082 1.62624L14.7183 1.59507L15.129 0.332819C15.1631 0.235206 15.2267 0.150622 15.3111 0.090775C15.3954 0.0309281 15.4963 -0.0012207 15.5997 -0.0012207C15.7031 -0.0012207 15.8039 0.0309281 15.8883 0.090775C15.9726 0.150622 16.0362 0.235206 16.0704 0.332819L16.4801 1.59507C16.6082 1.97873 16.8239 2.32727 17.1102 2.61304C17.3964 2.89882 17.7453 3.11396 18.1292 3.2414L19.3915 3.65207L19.4171 3.65849C19.5141 3.69301 19.598 3.75669 19.6574 3.84081C19.7167 3.92492 19.7486 4.02534 19.7486 4.12828C19.7486 4.23122 19.7167 4.33163 19.6574 4.41575C19.598 4.49986 19.5141 4.56355 19.4171 4.59807L18.154 5.00874C17.7702 5.1363 17.4215 5.3515 17.1354 5.63726C16.8494 5.92303 16.6338 6.2715 16.5058 6.65507L16.0951 7.91732L16.0832 7.94849C16.0436 8.04072 15.9771 8.11886 15.8923 8.17268C15.8076 8.2265 15.7086 8.25349 15.6083 8.25012C15.5079 8.24675 15.411 8.21319 15.33 8.15381C15.2491 8.09443 15.188 8.01201 15.1546 7.91732L14.744 6.65507C14.6522 6.37414 14.5118 6.11117 14.3305 5.87774ZM21.3852 9.36199L20.683 9.13465C20.47 9.06342 20.2764 8.9436 20.1176 8.78466C19.9588 8.62573 19.8392 8.43204 19.7682 8.2189L19.539 7.51857C19.5201 7.46442 19.4847 7.41751 19.4379 7.38432C19.3911 7.35113 19.3352 7.33331 19.2778 7.33331C19.2204 7.33331 19.1645 7.35113 19.1177 7.38432C19.0708 7.41751 19.0355 7.46442 19.0165 7.51857L18.7892 8.2189C18.7195 8.43067 18.6018 8.62348 18.4454 8.78232C18.2889 8.94116 18.0979 9.06173 17.8872 9.13465L17.186 9.36199C17.1318 9.38096 17.0849 9.4163 17.0517 9.4631C17.0185 9.5099 17.0007 9.56586 17.0007 9.62324C17.0007 9.68061 17.0185 9.73657 17.0517 9.78337C17.0849 9.83017 17.1318 9.86551 17.186 9.88449L17.8872 10.1127C18.1009 10.184 18.295 10.3041 18.4542 10.4636C18.6133 10.623 18.733 10.8174 18.8039 11.0312L19.0312 11.7316C19.0502 11.7857 19.0855 11.8326 19.1323 11.8658C19.1791 11.899 19.2351 11.9168 19.2925 11.9168C19.3498 11.9168 19.4058 11.899 19.4526 11.8658C19.4994 11.8326 19.5347 11.7857 19.5537 11.7316L19.782 11.0312C19.8531 10.818 19.9728 10.6242 20.1318 10.4653C20.2907 10.3064 20.4845 10.1866 20.6977 10.1155L21.399 9.88815C21.4531 9.86917 21.5 9.83384 21.5332 9.78704C21.5664 9.74024 21.5842 9.68428 21.5842 9.6269C21.5842 9.56953 21.5664 9.51357 21.5332 9.46677C21.5 9.41996 21.4531 9.38463 21.399 9.36565L21.3852 9.36199ZM11.191 2.9334C10.1406 2.67661 9.04229 2.68944 7.99818 2.9707C6.95406 3.25195 5.99796 3.79251 5.21867 4.54217C4.43938 5.29182 3.86217 6.22626 3.54067 7.25869C3.21916 8.29112 3.16379 9.38806 3.37968 10.4476C3.59557 11.5072 4.07573 12.495 4.77556 13.3193C5.47539 14.1437 6.37219 14.7778 7.38267 15.1627C8.39315 15.5477 9.48454 15.6711 10.5555 15.5214C11.6264 15.3717 12.6421 14.9538 13.5083 14.3065L18.1851 18.9824C18.358 19.1494 18.5896 19.2418 18.8299 19.2397C19.0703 19.2376 19.3002 19.1412 19.4701 18.9712C19.6401 18.8013 19.7365 18.5714 19.7386 18.331C19.7407 18.0907 19.6483 17.8591 19.4813 17.6862L14.8063 13.0112C15.6377 11.9022 16.0859 10.5528 16.0832 9.16674V9.12274C15.9251 9.18255 15.7573 9.2127 15.5882 9.21165C14.9841 9.20982 14.3535 8.82024 14.1582 8.24915V8.2464C14.2187 8.54462 14.2493 8.8514 14.2499 9.16674C14.2496 10.1184 13.953 11.0464 13.4014 11.822C12.8497 12.5975 12.0704 13.182 11.1714 13.4945C10.2725 13.807 9.29857 13.8319 8.38484 13.5658C7.47111 13.2996 6.66288 12.7557 6.07233 12.0093C5.48178 11.263 5.1382 10.3514 5.08926 9.40095C5.04033 8.45051 5.28848 7.50841 5.79926 6.70539C6.31004 5.90238 7.05813 5.27828 7.9397 4.91971C8.82127 4.56114 9.79259 4.48589 10.7189 4.7044C10.6308 4.51415 10.5845 4.30722 10.5832 4.09757C10.5841 3.62365 10.8179 3.19649 11.191 2.9334Z" fill="#FEFEFE"/>
</g>
<defs>
<clipPath id="clip0_29_572">
<rect width="22" height="22" fill="white" transform="translate(0.5)"/>
</clipPath>
</defs>
</svg>
