<svg width="16" height="17" viewBox="0 0 16 17" fill="none" xmlns="http://www.w3.org/2000/svg">
<path d="M7.99967 1.48474C8.53011 1.48474 9.03882 1.69545 9.41389 2.07053C9.78896 2.4456 9.99967 2.95431 9.99967 3.48474V7.48474C9.99967 8.01517 9.78896 8.52388 9.41389 8.89895C9.03882 9.27403 8.53011 9.48474 7.99967 9.48474C7.46924 9.48474 6.96053 9.27403 6.58546 8.89895C6.21039 8.52388 5.99967 8.01517 5.99967 7.48474V3.48474C5.99967 2.95431 6.21039 2.4456 6.58546 2.07053C6.96053 1.69545 7.46924 1.48474 7.99967 1.48474ZM12.6663 7.48474C12.6663 9.83807 10.9263 11.7781 8.66634 12.1047V14.1514H7.33301V12.1047C5.07301 11.7781 3.33301 9.83807 3.33301 7.48474H4.66634C4.66634 8.3688 5.01753 9.21664 5.64265 9.84176C6.26777 10.4669 7.11562 10.8181 7.99967 10.8181C8.88373 10.8181 9.73158 10.4669 10.3567 9.84176C10.9818 9.21664 11.333 8.3688 11.333 7.48474H12.6663Z" fill="#FCFCFC"/>
</svg>
