<svg width="64" height="26" viewBox="0 0 64 26" fill="none" xmlns="http://www.w3.org/2000/svg">
<path d="M11.4351 5.81175H9.94039V8.15137H8.75202V1.36463H11.4351C12.7999 1.36463 13.6819 2.25591 13.6819 3.58355C13.6819 4.89262 12.7906 5.81175 11.4351 5.81175ZM11.203 2.42303H9.94039V4.75336H11.1845C12.0015 4.75336 12.4378 4.317 12.4378 3.57427C12.4378 2.83153 11.9922 2.42303 11.203 2.42303ZM13.6472 5.84889C13.6472 4.41913 14.6777 3.435 16.0982 3.435C17.5187 3.435 18.5492 4.41913 18.5492 5.84889C18.5492 7.27865 17.5187 8.26278 16.0982 8.26278C14.6777 8.26278 13.6472 7.27865 13.6472 5.84889ZM14.7798 5.84889C14.7798 6.68447 15.3183 7.2508 16.0982 7.2508C16.8781 7.2508 17.4166 6.68447 17.4166 5.84889C17.4166 5.01331 16.8781 4.44698 16.0982 4.44698C15.3183 4.44698 14.7798 5.01331 14.7798 5.84889ZM19.861 8.15137L18.3755 3.56498H19.5546L20.1581 5.53323C20.2602 5.89531 20.353 6.29453 20.4366 6.7216C20.5202 6.27596 20.6037 5.98815 20.7523 5.53323L21.3836 3.56498H22.5348L23.1476 5.53323C23.2033 5.71891 23.389 6.40594 23.4447 6.71232C23.5189 6.3688 23.6675 5.82104 23.751 5.53323L24.3638 3.56498H25.5615L23.9739 8.15137H22.9155L22.2841 6.16455C22.0985 5.56108 21.9963 5.12472 21.9592 4.89262C21.9128 5.10616 21.8292 5.4311 21.5971 6.18312L20.9658 8.15137H19.861ZM27.7011 8.27206C26.3363 8.27206 25.3801 7.27865 25.3801 5.85817C25.3801 4.41913 26.3178 3.42572 27.664 3.42572C29.038 3.42572 29.9107 4.34485 29.9107 5.77462V6.11813L26.457 6.12742C26.5406 6.93514 26.9677 7.34364 27.7197 7.34364C28.3417 7.34364 28.7502 7.10225 28.8802 6.6659H29.9293C29.7343 7.66859 28.8988 8.27206 27.7011 8.27206ZM27.6733 4.35414C27.0048 4.35414 26.5963 4.71622 26.4849 5.40325H28.7874C28.7874 4.77193 28.351 4.35414 27.6733 4.35414ZM33.324 3.54641V4.59553H32.9062C32.0892 4.59553 31.5786 5.03188 31.5786 5.92316V8.15137H30.4459V3.57427H31.5136L31.5786 4.24273C31.7735 3.7878 32.2099 3.48142 32.8226 3.48142C32.9805 3.48142 33.1383 3.49999 33.324 3.54641ZM35.617 8.27206C34.2522 8.27206 33.2959 7.27865 33.2959 5.85817C33.2959 4.41913 34.2336 3.42572 35.5798 3.42572C36.9539 3.42572 37.8266 4.34485 37.8266 5.77462V6.11813L34.3729 6.12742C34.4564 6.93514 34.8835 7.34364 35.6355 7.34364C36.2576 7.34364 36.6661 7.10225 36.796 6.6659H37.8452C37.6502 7.66859 36.8146 8.27206 35.617 8.27206ZM35.5891 4.35414C34.9206 4.35414 34.5121 4.71622 34.4007 5.40325H36.7032C36.7032 4.77193 36.2668 4.35414 35.5891 4.35414ZM40.2464 8.27206C38.9188 8.27206 38.0925 7.29722 38.0925 5.87674C38.0925 4.44698 38.9281 3.42572 40.3114 3.42572C40.952 3.42572 41.5184 3.69496 41.8062 4.14989V1.24394H42.9296V8.15137H41.8897L41.8155 7.43649C41.5369 7.96568 40.9427 8.27206 40.2464 8.27206ZM40.4971 7.23223C41.2863 7.23223 41.7969 6.6659 41.7969 5.83961C41.7969 5.01331 41.2863 4.43769 40.4971 4.43769C39.7079 4.43769 39.2252 5.0226 39.2252 5.83961C39.2252 6.65661 39.7079 7.23223 40.4971 7.23223ZM46.9187 8.15137H45.8696V1.24394H47.0023V4.23344C47.2994 3.72281 47.9121 3.41643 48.6084 3.41643C49.9175 3.41643 50.7159 4.43769 50.7159 5.88603C50.7159 7.29722 49.8525 8.27206 48.5342 8.27206C47.8471 8.27206 47.2622 7.96568 46.993 7.43649L46.9187 8.15137ZM47.0115 5.83961C47.0115 6.6659 47.5222 7.23223 48.302 7.23223C49.1005 7.23223 49.574 6.65661 49.574 5.83961C49.574 5.0226 49.1005 4.43769 48.302 4.43769C47.5222 4.43769 47.0115 5.01331 47.0115 5.83961ZM50.675 10.2774V9.33046H51.3527C51.7983 9.33046 52.0769 9.22833 52.2718 8.68985L52.4018 8.34633L50.5543 3.56498H51.7519L52.931 6.90729L54.1751 3.56498H55.3449L53.0981 9.17263C52.7546 10.0268 52.2718 10.3796 51.5198 10.3796C51.2042 10.3796 50.9256 10.3424 50.675 10.2774Z" fill="#011378"/>
<path d="M3.87083 25.3407H1.33838L6.3652 11.4217H8.85958L13.8864 25.3407H11.3159L10.1924 22.1228H4.99425L3.87083 25.3407ZM7.29821 15.5727L5.71781 20.0663H9.48793L7.88848 15.5727C7.77424 15.2109 7.64095 14.792 7.60287 14.5064C7.54575 14.7729 7.4315 15.1918 7.29821 15.5727Z" fill="url(#paint0_linear_4_2415)"/>
<path d="M17.6311 25.3407H15.3271V11.1742H17.6311V25.3407Z" fill="url(#paint1_linear_4_2415)"/>
<path d="M19.5157 20.6185C19.5157 17.7053 21.4388 15.6488 24.2188 15.6488C26.7894 15.6488 28.5411 17.0769 28.7887 19.3428H26.4657C26.1991 18.2765 25.4184 17.7243 24.314 17.7243C22.8288 17.7243 21.8387 18.8477 21.8387 20.6185C21.8387 22.3893 22.7527 23.4937 24.2379 23.4937C25.3994 23.4937 26.2181 22.9225 26.4657 21.8943H28.8077C28.5221 24.084 26.6942 25.5882 24.2379 25.5882C21.3817 25.5882 19.5157 23.608 19.5157 20.6185Z" fill="url(#paint2_linear_4_2415)"/>
<path d="M34.7448 25.5882C31.9457 25.5882 29.9845 23.5509 29.9845 20.6376C29.9845 17.6862 31.9077 15.6488 34.6686 15.6488C37.4867 15.6488 39.2765 17.5339 39.2765 20.4662V21.1707L32.1933 21.1898C32.3647 22.8463 33.2405 23.6841 34.7829 23.6841C36.0586 23.6841 36.8964 23.1891 37.163 22.2941H39.3146C38.9148 24.3506 37.2011 25.5882 34.7448 25.5882ZM34.6877 17.5529C33.3167 17.5529 32.4789 18.2955 32.2504 19.7046H36.9726C36.9726 18.4098 36.0776 17.5529 34.6877 17.5529Z" fill="url(#paint3_linear_4_2415)"/>
<path d="M43.4587 25.3407H41.1357V15.9344H43.2683L43.4587 17.0388C43.9347 16.2581 44.8868 15.6488 46.2387 15.6488C47.6668 15.6488 48.6569 16.3534 49.152 17.4387C49.628 16.3534 50.7324 15.6488 52.1605 15.6488C54.4454 15.6488 55.7021 17.0198 55.7021 19.1905V25.3407H53.3981V19.7998C53.3981 18.4479 52.6746 17.7433 51.5702 17.7433C50.4468 17.7433 49.5899 18.4669 49.5899 20.0092V25.3407H47.2669V19.7807C47.2669 18.4669 46.5624 17.7624 45.458 17.7624C44.3536 17.7624 43.4587 18.4859 43.4587 20.0092V25.3407Z" fill="url(#paint4_linear_4_2415)"/>
<path d="M57.9825 25.3407V15.9344H60.3055V25.3407H57.9825Z" fill="url(#paint5_linear_4_2415)"/>
<path d="M55.5429 11.7695C58.0218 11.7695 59.1023 10.7266 59.1023 8.21021C59.1023 10.7266 60.1752 11.7695 62.6616 11.7695C60.1752 11.7695 59.1023 12.8425 59.1023 15.3288C59.1023 12.8425 58.0218 11.7695 55.5429 11.7695Z" fill="url(#paint6_linear_4_2415)"/>
<defs>
<linearGradient id="paint0_linear_4_2415" x1="1.11965" y1="16.4343" x2="63.9111" y2="16.4343" gradientUnits="userSpaceOnUse">
<stop stop-color="#001068"/>
<stop offset="1" stop-color="#0623C5"/>
</linearGradient>
<linearGradient id="paint1_linear_4_2415" x1="1.11965" y1="16.4343" x2="63.9111" y2="16.4343" gradientUnits="userSpaceOnUse">
<stop stop-color="#001068"/>
<stop offset="1" stop-color="#0623C5"/>
</linearGradient>
<linearGradient id="paint2_linear_4_2415" x1="1.11965" y1="16.4343" x2="63.9111" y2="16.4343" gradientUnits="userSpaceOnUse">
<stop stop-color="#001068"/>
<stop offset="1" stop-color="#0623C5"/>
</linearGradient>
<linearGradient id="paint3_linear_4_2415" x1="1.11965" y1="16.4343" x2="63.9111" y2="16.4343" gradientUnits="userSpaceOnUse">
<stop stop-color="#001068"/>
<stop offset="1" stop-color="#0623C5"/>
</linearGradient>
<linearGradient id="paint4_linear_4_2415" x1="1.11965" y1="16.4343" x2="63.9111" y2="16.4343" gradientUnits="userSpaceOnUse">
<stop stop-color="#001068"/>
<stop offset="1" stop-color="#0623C5"/>
</linearGradient>
<linearGradient id="paint5_linear_4_2415" x1="1.11965" y1="16.4343" x2="63.9111" y2="16.4343" gradientUnits="userSpaceOnUse">
<stop stop-color="#001068"/>
<stop offset="1" stop-color="#0623C5"/>
</linearGradient>
<linearGradient id="paint6_linear_4_2415" x1="55.5175" y1="11.5791" x2="62.8066" y2="11.5791" gradientUnits="userSpaceOnUse">
<stop stop-color="#03115F"/>
<stop offset="0.13" stop-color="#0623C5"/>
</linearGradient>
</defs>
</svg>
