<svg width="1330" height="780" viewBox="0 0 1330 780" fill="none" xmlns="http://www.w3.org/2000/svg">
<g filter="url(#filter0_f_4_2395)">
<path d="M-115.948 500.125C-157.016 526.032 -184.65 543.518 -198.565 561.138C-213.067 568.946 -221.079 577.823 -226.094 588.59C-231.138 600.893 -236.804 636.478 -237.629 682.896C-238.126 710.838 -238.126 762.229 -237.614 789.059C-237.102 815.889 -236.304 818.131 -235.099 821.084C-229.03 835.956 -221.522 853.538 -210.477 862.975C-197.887 873.731 -185.528 883.717 -136.339 892.297C-81.176 901.919 -43.1797 906.427 -32.7296 907.436C-21.2091 908.548 16.7403 912.173 73.47 908.148C120.501 904.811 150.478 900.055 175.784 894.766C244.922 880.317 267.306 874.925 306.651 857.691C331.183 846.946 350.105 838.925 377.898 823.208C401.541 809.838 419.879 796.522 435.109 788.736C454.671 778.736 464.714 770.589 478.751 765.399C492.862 760.182 522.279 749.924 549.681 743.119C603.338 729.793 634.119 723.58 652.477 716.812C677.612 707.546 693.87 695.995 753.436 689.014C785.137 685.299 819.633 681.022 841.278 676.4C879.409 668.257 902.919 669.003 911.953 661.572C916.455 657.868 921.162 653.664 925.009 647.823C934.527 633.374 946.521 624.356 942.026 589.581C939.527 570.237 938.061 550.935 933.488 542.172C928.443 532.506 923.632 521.576 914.889 512.873C903.324 501.36 895.23 485.757 877.647 485.097C858.085 484.363 843.218 485.592 835.029 486.599C822.996 488.078 778.147 505.653 709.252 512.962C664.269 517.734 644.407 516.544 637.779 515.876C619.121 513.996 580.718 500.898 528.222 472.027C504.699 459.09 487.659 448.071 473.089 442.794C444.37 432.394 413.303 416.316 336.665 414.64C269.499 413.172 226.676 414.633 211.987 415.03C170.408 416.153 153.178 413.664 65.7896 430.28C30.8064 436.932 -1.89514 449.201 -34.9735 461.059L-35.2551 461.16C-52.7263 467.423 -79.0921 476.875 -115.948 500.125Z" fill="#1632CD"/>
</g>
<g filter="url(#filter1_f_4_2395)">
<path d="M-276.655 605.936C-335.318 642.916 -374.792 667.876 -394.669 693.027C-415.385 704.173 -426.829 716.844 -433.992 732.214C-441.199 749.775 -449.291 800.569 -450.47 866.827C-451.18 906.713 -451.18 980.069 -450.449 1018.37C-449.717 1056.66 -448.577 1059.86 -446.856 1064.08C-438.187 1085.31 -427.462 1110.41 -411.685 1123.88C-393.701 1139.23 -376.047 1153.48 -305.782 1165.73C-226.985 1179.46 -172.709 1185.9 -157.781 1187.34C-141.325 1188.93 -87.1161 1194.1 -6.08057 1188.36C61.1006 1183.59 103.921 1176.8 140.07 1169.25C238.831 1148.63 270.805 1140.93 327.007 1116.33C362.05 1101 389.078 1089.55 428.779 1067.11C462.553 1048.03 488.747 1029.02 510.503 1017.91C538.446 1003.63 552.792 992.002 572.844 984.594C593 977.147 635.021 962.505 674.164 952.791C750.81 933.769 794.779 924.9 821.003 915.239C856.906 902.013 880.13 885.525 965.218 875.56C1010.5 870.257 1059.78 864.152 1090.7 857.555C1145.16 845.932 1178.75 846.997 1191.65 836.389C1198.08 831.102 1204.81 825.102 1210.3 816.764C1223.9 796.139 1241.03 783.267 1234.61 733.627C1231.04 706.015 1228.95 678.464 1222.41 665.955C1215.21 652.157 1208.33 636.556 1195.85 624.133C1179.32 607.699 1167.76 585.427 1142.65 584.485C1114.7 583.437 1093.47 585.192 1081.77 586.629C1064.58 588.741 1000.52 613.827 902.102 624.26C837.847 631.071 809.475 629.373 800.008 628.42C773.355 625.736 718.498 607.039 643.51 565.829C609.908 547.363 585.567 531.633 564.755 524.101C523.732 509.256 479.354 486.306 369.88 483.914C273.938 481.818 212.767 483.904 191.784 484.47C132.391 486.074 107.778 482.52 -17.0516 506.239C-67.0233 515.734 -113.736 533.246 -160.987 550.173L-161.389 550.317C-186.346 559.257 -224.008 572.748 -276.655 605.936Z" fill="#1632CD"/>
</g>
<g filter="url(#filter2_f_4_2395)">
<path d="M1598.95 496.388C1642.17 495.633 1671.26 495.152 1687.41 499.24C1702.44 498.315 1711.52 500.046 1718.1 503.69C1724.97 508.078 1736.39 523.702 1745.1 546.237C1750.34 559.803 1759.12 585.052 1763.22 598.403C1767.32 611.753 1766.95 613.117 1766.31 614.963C1763.12 624.263 1759.03 635.366 1750.21 643.629C1740.16 653.048 1730.19 662.012 1685.19 682.377C1634.73 705.217 1599.61 719.907 1589.91 723.834C1579.22 728.163 1543.99 742.404 1489.72 759.052C1444.73 772.854 1415.6 780.36 1390.79 786.07C1323.02 801.671 1300.95 806.371 1260.85 810.822C1235.84 813.597 1216.6 815.869 1187.66 817.272C1163.05 818.465 1143.45 817.943 1127.73 819.119C1107.55 820.628 1096.67 819.923 1082.53 821.982C1068.31 824.051 1038.77 828.67 1011.72 834.323C958.764 845.393 928.629 852.446 910.132 855.149C884.809 858.849 867.48 858.511 810.023 874.639C779.445 883.222 746.131 892.446 724.896 897.282C687.489 905.801 665.409 913.887 655.608 913.202C650.722 912.86 645.558 912.34 640.927 910.733C629.469 906.759 616.6 906.266 614.906 887.704C613.964 877.379 612.051 867.415 614.875 861.608C617.989 855.202 620.666 848.253 627.438 841.106C636.397 831.652 641.377 821.329 657.872 815.231C676.225 808.448 690.477 804.17 698.384 801.976C710.003 798.753 755.367 792.662 821.691 773.633C864.995 761.208 883.553 754.102 889.699 751.598C907.002 744.548 941.039 725.504 985.695 694.083C1005.7 680.004 1019.92 668.995 1032.78 661.619C1058.13 647.079 1084.73 628.98 1156.83 602.994C1220.02 580.22 1260.72 566.878 1274.66 562.25C1314.13 549.15 1329.98 542.27 1415.36 521.742C1449.54 513.524 1482.53 508.815 1515.79 503.781L1516.08 503.738C1533.65 501.079 1560.17 497.066 1598.95 496.388Z" fill="#1632CD"/>
</g>
<g style="mix-blend-mode:plus-lighter" opacity="0.8" filter="url(#filter3_f_4_2395)">
<path d="M225.395 1316.71C302.599 1321.07 387.78 1323.43 455.198 1361.3C610.329 1448.45 914.675 1581.36 1234.46 1509.91C2021.44 1334.08 2263.31 -444.008 1622.93 206.348C503.099 1343.62 -341.863 94.4558 -116.93 914.811C-28.29 1238.09 120.032 1310.75 225.395 1316.71Z" fill="white"/>
</g>
<defs>
<filter id="filter0_f_4_2395" x="-642.948" y="9.0517" width="1990.9" height="1305.9" filterUnits="userSpaceOnUse" color-interpolation-filters="sRGB">
<feFlood flood-opacity="0" result="BackgroundImageFix"/>
<feBlend mode="normal" in="SourceGraphic" in2="BackgroundImageFix" result="shape"/>
<feGaussianBlur stdDeviation="202.474" result="effect1_foregroundBlur_4_2395"/>
</filter>
<filter id="filter1_f_4_2395" x="-855.948" y="78.0517" width="2496.9" height="1517.9" filterUnits="userSpaceOnUse" color-interpolation-filters="sRGB">
<feFlood flood-opacity="0" result="BackgroundImageFix"/>
<feBlend mode="normal" in="SourceGraphic" in2="BackgroundImageFix" result="shape"/>
<feGaussianBlur stdDeviation="202.474" result="effect1_foregroundBlur_4_2395"/>
</filter>
<filter id="filter2_f_4_2395" x="413.394" y="295.88" width="1553.31" height="817.362" filterUnits="userSpaceOnUse" color-interpolation-filters="sRGB">
<feFlood flood-opacity="0" result="BackgroundImageFix"/>
<feBlend mode="normal" in="SourceGraphic" in2="BackgroundImageFix" result="shape"/>
<feGaussianBlur stdDeviation="100" result="effect1_foregroundBlur_4_2395"/>
</filter>
<filter id="filter3_f_4_2395" x="-313.379" y="-96.0602" width="2463" height="1786.32" filterUnits="userSpaceOnUse" color-interpolation-filters="sRGB">
<feFlood flood-opacity="0" result="BackgroundImageFix"/>
<feBlend mode="normal" in="SourceGraphic" in2="BackgroundImageFix" result="shape"/>
<feGaussianBlur stdDeviation="80" result="effect1_foregroundBlur_4_2395"/>
</filter>
</defs>
</svg>
